<?xml version="1.0" ?>
<!DOCTYPE svg  PUBLIC '-//W3C//DTD SVG 1.1//EN'  'http://www.w3.org/Graphics/SVG/1.1/DTD/svg11.dtd'>
<!-- Uploaded to: SVG Repo, www.svgrepo.com, Generator: SVG Repo Mixer Tools -->
<svg fill="#000000" width="800px" height="800px" viewBox="0 0 64 64" style="fill-rule:evenodd;clip-rule:evenodd;stroke-linejoin:round;stroke-miterlimit:2;" version="1.1" xml:space="preserve" xmlns="http://www.w3.org/2000/svg" xmlns:serif="http://www.serif.com/" xmlns:xlink="http://www.w3.org/1999/xlink">
<g transform="matrix(1,0,0,1,-430,-162.338)">
<g id="tractor" transform="matrix(1,0,0,1,96.8303,162.338)">
<rect height="64" style="fill:none;" width="64" x="333.17" y="0"/>
<g transform="matrix(1,0,0,1,205.17,-256)">
<path d="M142,290.711L142,274C142,273.47 142.211,272.961 142.586,272.586C142.961,272.211 143.47,272 144,272C148.52,272 159.48,272 164,272C164.53,272 165.039,272.211 165.414,272.586C165.789,272.961 166,273.47 166,274C166,274.53 165.789,275.039 165.414,275.414C165.039,275.789 164.53,276 164,276C163.724,276 163.532,276 163.532,276L167.132,282L169,282L169,278C169,275.791 170.791,274 173,274C173.345,274 173.682,274 174,274C175.105,274 176,274.895 176,276C176,276.53 175.789,277.039 175.414,277.414C175.039,277.789 174.53,278 174,278C173.449,278 173,278 173,278L173,282L174,282C177.314,282 180,284.686 180,288C180,290.822 180,293.999 180,296C180,297.105 179.105,298 178,298L176,298L176,298C176,301.311 173.311,304 170,304C166.689,304 164,301.312 164,298L155.748,298C154.858,301.449 151.725,304 148,304C143.585,304 140,300.415 140,296C140,293.973 140.755,292.121 142,290.711ZM172,297.999C171.999,296.895 171.103,296 170,296C168.896,296 168,296.896 168,298C168,299.104 168.896,300 170,300C171.104,300 172,299.104 172,298L172,298L172,298L172,297.999ZM148,292C145.792,292 144,293.792 144,296C144,298.208 145.792,300 148,300C150.208,300 152,298.208 152,296C152,293.792 150.208,292 148,292ZM158.868,276L146,276L146,288.252C146.639,288.088 147.31,288 148,288C151.725,288 154.859,290.551 155.748,294L165.529,294C166.628,292.773 168.225,292 170,292C171.775,292 173.372,292.773 174.471,294L176,294L176,288C176,286.895 175.105,286 174,286C169.99,286 161.01,286 157,286C155.895,286 155,285.105 155,284L155,283.998C155,282.895 155.895,282 156.998,282C159.21,282 162.468,282 162.468,282L158.868,276Z"/>
</g>
</g>
</g>
</svg>