<?xml version="1.0" ?>
<!DOCTYPE svg  PUBLIC '-//W3C//DTD SVG 1.1//EN'  'http://www.w3.org/Graphics/SVG/1.1/DTD/svg11.dtd'>
<!-- Uploaded to: SVG Repo, www.svgrepo.com, Generator: SVG Repo Mixer Tools -->
<svg fill="#000000" width="800px" height="800px" viewBox="0 0 64 64" style="fill-rule:evenodd;clip-rule:evenodd;stroke-linejoin:round;stroke-miterlimit:2;" version="1.1" xml:space="preserve" xmlns="http://www.w3.org/2000/svg" xmlns:serif="http://www.serif.com/" xmlns:xlink="http://www.w3.org/1999/xlink">
<g transform="matrix(1,0,0,1,-430,-81.1692)">
<g id="copter" transform="matrix(1,0,0,1,96.8303,81.1692)">
<rect height="64" style="fill:none;" width="64" x="333.17" y="0"/>
<g transform="matrix(1,0,0,1,141.17,-128)">
<path d="M248,142C249.104,142 250,142.896 250,144C250,145.104 249.104,146 248,146L232,146L232,150L239.646,150C241.825,150 243.833,151.181 244.891,153.086C246.335,155.685 248.475,159.536 250.447,163.086C251.479,164.945 251.451,167.21 250.373,169.043C249.295,170.875 247.328,172 245.202,172L240,172L240,176L248,176C248.531,176 249.039,176.211 249.414,176.586C249.789,176.961 250,177.47 250,178C250,179.105 249.105,180 248,180C241.698,180 222.302,180 216,180C214.895,180 214,179.105 214,178C214,177.47 214.211,176.961 214.586,176.586C214.961,176.211 215.47,176 216,176C218.918,176 224,176 224,176L224,172L218,172C216.895,172 216,171.105 216,170C216,169 216,168 216,168L200,168C198.895,168 198,167.105 198,166C198,162.586 198,155 198,154C198,153.47 198.211,152.961 198.586,152.586C198.961,152.211 199.47,152 200,152C201.332,152 203.014,152 204,152C204.53,152 205.039,152.211 205.414,152.586C206.525,153.697 208.828,156 208.828,156L216,156L216,154C216,152.939 216.421,151.922 217.172,151.172C217.922,150.421 218.939,150 220,150C223.49,150 228,150 228,150L228,146L212,146C210.896,146 210,145.104 210,144C210,142.896 210.896,142 212,142L248,142ZM236,172L228,172L228,176L236,176L236,172ZM218,164C218.531,164 219.039,164.211 219.414,164.586C219.789,164.961 220,165.47 220,166C220,167 220,168 220,168L245.202,168C245.911,168 246.566,167.625 246.926,167.014C247.285,166.404 247.294,165.648 246.95,165.029C246.112,163.519 245.268,162 245.268,162L234,162C232.895,162 232,161.105 232,160C232,158.895 232.895,158 234,158C237.183,158 243.045,158 243.045,158C243.045,158 242.053,156.214 241.395,155.029C241.042,154.394 240.373,154 239.646,154C235.244,154 220,154 220,154C220,154 220,156.255 220,158C220,159.105 219.105,160 218,160C214.393,160 207.172,160 207.172,160L203.172,156L202,156L202,164L218,164Z"/>
</g>
</g>
</g>
</svg>