<?xml version="1.0" ?>
<!DOCTYPE svg  PUBLIC '-//W3C//DTD SVG 1.1//EN'  'http://www.w3.org/Graphics/SVG/1.1/DTD/svg11.dtd'>
<!-- Uploaded to: SVG Repo, www.svgrepo.com, Generator: SVG Repo Mixer Tools -->
<svg fill="#000000" width="800px" height="800px" viewBox="0 0 64 64" style="fill-rule:evenodd;clip-rule:evenodd;stroke-linejoin:round;stroke-miterlimit:2;" version="1.1" xml:space="preserve" xmlns="http://www.w3.org/2000/svg" xmlns:serif="http://www.serif.com/" xmlns:xlink="http://www.w3.org/1999/xlink">
<g transform="matrix(1,0,0,1,-352,-243.508)">
<g id="copter-front" transform="matrix(1,0,0,1,18.8303,243.508)">
<rect height="64" style="fill:none;" width="64" x="333.17" y="0"/>
<g transform="matrix(1,0,0,1,269.17,-320)">
<path d="M94,334L78,334C76.895,334 76,333.105 76,332C76,330.895 76.895,330 78,330C84.828,330 107.172,330 114,330C115.105,330 116,330.895 116,332C116,332 116,332 116,332C116,333.105 115.105,334 114,334L98,334L98,338.142C104.785,339.112 110,344.947 110,352L110,359C110,360.937 109.213,362.69 107.942,363.957C108.34,364.251 108.717,364.575 109.071,364.929C110.946,366.804 112,369.348 112,372C112,372 112,372 112,372C112,373.105 111.105,374 110,374C108.895,374 108,373.105 108,372C108,371.985 108,371.97 108,371.955C108,370.376 107.373,368.861 106.256,367.744C105.14,366.629 103.628,366.002 102.05,366L89.95,366C88.372,366.002 86.86,366.629 85.744,367.744C84.627,368.861 84,370.376 84,371.955C84,371.97 84,371.985 84,372C84,373.105 83.105,374 82,374C80.895,374 80,373.105 80,372C80,372 80,372 80,372C80,369.348 81.054,366.804 82.929,364.929C83.283,364.575 83.66,364.251 84.058,363.957C82.787,362.69 82,360.937 82,359L82,358L82,358L82,354L82,354L82,352C82,348.287 83.475,344.726 86.101,342.101C88.25,339.951 91.026,338.573 94,338.144L94,334ZM106,358L86,358L86,359C86,360.657 87.343,362 89,362L89.989,362L90,362C93.822,362 98.178,362 102,362L102.011,362L103,362C104.657,362 106,360.657 106,359L106,358ZM98,342.2L98,354L106,354L106,352C106,347.162 102.564,343.127 98,342.2ZM94,342.2C89.436,343.127 86,347.162 86,352L86,354L94,354L94,342.2Z"/>
</g>
</g>
</g>
</svg>