<?xml version="1.0" ?>
<!DOCTYPE svg  PUBLIC '-//W3C//DTD SVG 1.1//EN'  'http://www.w3.org/Graphics/SVG/1.1/DTD/svg11.dtd'>
<!-- Uploaded to: SVG Repo, www.svgrepo.com, Generator: SVG Repo Mixer Tools -->
<svg fill="#000000" width="800px" height="800px" viewBox="0 0 64 64" style="fill-rule:evenodd;clip-rule:evenodd;stroke-linejoin:round;stroke-miterlimit:2;" version="1.1" xml:space="preserve" xmlns="http://www.w3.org/2000/svg" xmlns:serif="http://www.serif.com/" xmlns:xlink="http://www.w3.org/1999/xlink">
<g transform="matrix(1,0,0,1,-508,-81.1692)">
<g id="submarine" transform="matrix(1,0,0,1,174.83,81.1692)">
<rect height="64" style="fill:none;" width="64" x="333.17" y="0"/>
<g transform="matrix(1,0,0,1,205.17,-192)">
<path d="M160,214L160,211C160,209.674 160.527,208.402 161.464,207.464C162.402,206.527 163.674,206 165,206C166.064,206 167.129,206 168,206C168.53,206 169.039,206.211 169.414,206.586C169.789,206.961 170,207.47 170,208C170,209.105 169.105,210 168,210C166.993,210 165.815,210 165,210C164.735,210 164.48,210.105 164.293,210.293C164.105,210.48 164,210.735 164,211C164,212.185 164,214 164,214L170,214C170.758,214 171.45,214.428 171.789,215.106C172.887,217.301 175.236,222 175.236,222L178,222C183.519,222 188,226.481 188,232C188,237.519 183.519,242 178,242C178,242 153.708,242 150,242C149.69,242 149.383,241.928 149.106,241.789C147.573,241.023 142.395,238.434 142.395,238.434C142.395,238.434 140.426,240.402 139.414,241.414C139.039,241.789 138.53,242 138,242C137.014,242 135.332,242 134,242C133.47,242 132.961,241.789 132.586,241.414C132.211,241.039 132,240.53 132,240C132,236.168 132,227.832 132,224C132,223.47 132.211,222.961 132.586,222.586C132.961,222.211 133.47,222 134,222C135.332,222 137.014,222 138,222C138.53,222 139.039,222.211 139.414,222.586C140.426,223.598 142.395,225.566 142.395,225.566L148.509,222.509C148.509,222.509 151.059,217.409 152.211,215.106C152.55,214.428 153.242,214 154,214C156.067,214 160,214 160,214ZM137.172,226L136,226L136,238L137.172,238C137.172,238 139.277,235.895 140.586,234.586C141.194,233.977 142.124,233.826 142.894,234.211C145.354,235.441 150.472,238 150.472,238L178,238C181.312,238 184,235.311 184,232C184,228.689 181.312,226 178,226L150.472,226C150.472,226 145.354,228.559 142.894,229.789C142.124,230.174 141.194,230.023 140.586,229.414C139.277,228.105 137.172,226 137.172,226ZM168.764,218L155.236,218L153.236,222L170.764,222L168.764,218Z"/>
</g>
</g>
</g>
</svg>