<?xml version="1.0" ?>
<!DOCTYPE svg  PUBLIC '-//W3C//DTD SVG 1.1//EN'  'http://www.w3.org/Graphics/SVG/1.1/DTD/svg11.dtd'>
<!-- Uploaded to: SVG Repo, www.svgrepo.com, Generator: SVG Repo Mixer Tools -->
<svg fill="#000000" width="800px" height="800px" viewBox="0 0 64 64" style="fill-rule:evenodd;clip-rule:evenodd;stroke-linejoin:round;stroke-miterlimit:2;" version="1.1" xml:space="preserve" xmlns="http://www.w3.org/2000/svg" xmlns:serif="http://www.serif.com/" xmlns:xlink="http://www.w3.org/1999/xlink">
<g transform="matrix(1,0,0,1,-352,0)">
<g id="car" transform="matrix(1,0,0,1,18.8303,0)">
<rect height="64" style="fill:none;" width="64" x="333.17" y="0"/>
<g transform="matrix(1,0,0,1,269.17,-64)">
<path d="M78.342,106L72,106C71.47,106 70.961,105.789 70.586,105.414C70.211,105.039 70,104.53 70,104C70,100.707 70,94.282 70,92C70,91.47 70.211,90.961 70.586,90.586C71.938,89.234 75.321,85.851 77.414,83.757C78.539,82.632 80.066,82 81.657,82C86.201,82 95.799,82 100.343,82C101.934,82 103.461,82.632 104.586,83.757L110.828,90L114,90L114,90L116,90C117.591,90 119.117,90.632 120.243,91.757C121.368,92.883 122,94.409 122,96C122,98.822 122,101.999 122,104C122,104.53 121.789,105.039 121.414,105.414C121.039,105.789 120.53,106 120,106L113.658,106C112.834,108.329 110.61,110 108,110C105.39,110 103.166,108.329 102.342,106L89.658,106C88.834,108.329 86.61,110 84,110C81.39,110 79.166,108.329 78.342,106ZM108,102C106.896,102 106,102.896 106,104C106,105.104 106.896,106 108,106C109.104,106 110,105.104 110,104C110,102.896 109.104,102 108,102ZM84,102C82.896,102 82,102.896 82,104C82,105.104 82.896,106 84,106C85.104,106 86,105.104 86,104C86,102.896 85.104,102 84,102ZM113.658,102L118,102L118,96C118,94.895 117.105,94 116,94C113.396,94 109.172,94 109.172,94L109.172,94L92,94C90.895,94 90,93.105 90,92C90,91.47 90.211,90.961 90.586,90.586C90.961,90.211 91.47,90 92,90C96.12,90 105.172,90 105.172,90C105.172,90 102.868,87.697 101.757,86.586C101.382,86.211 100.874,86 100.343,86C97.055,86 84.945,86 81.657,86C81.126,86 80.618,86.211 80.243,86.586C78.588,88.24 74,92.828 74,92.828L74,102L78.342,102C79.166,99.671 81.39,98 84,98C86.61,98 88.834,99.671 89.658,102L102.342,102C103.166,99.671 105.39,98 108,98C110.61,98 112.834,99.671 113.658,102Z"/>
</g>
</g>
</g>
</svg>