<?xml version="1.0" ?>
<!DOCTYPE svg  PUBLIC '-//W3C//DTD SVG 1.1//EN'  'http://www.w3.org/Graphics/SVG/1.1/DTD/svg11.dtd'>
<!-- Uploaded to: SVG Repo, www.svgrepo.com, Generator: SVG Repo Mixer Tools -->
<svg fill="#000000" width="800px" height="800px" viewBox="0 0 64 64" style="fill-rule:evenodd;clip-rule:evenodd;stroke-linejoin:round;stroke-miterlimit:2;" version="1.1" xml:space="preserve" xmlns="http://www.w3.org/2000/svg" xmlns:serif="http://www.serif.com/" xmlns:xlink="http://www.w3.org/1999/xlink">
<g transform="matrix(1,0,0,1,-508,0)">
<g id="van" transform="matrix(1,0,0,1,174.83,0)">
<rect height="64" style="fill:none;" width="64" x="333.17" y="0"/>
<g transform="matrix(1,0,0,1,141.17,-64)">
<path d="M215.658,110C214.834,112.329 212.61,114 210,114C207.39,114 205.166,112.329 204.342,110L198,110C197.47,110 196.961,109.789 196.586,109.414C196.211,109.039 196,108.53 196,108C196,102.545 196,87.455 196,82C196,80.895 196.895,80 198,80C205.466,80 231.779,80 241.549,80C243.809,80 245.874,81.277 246.885,83.298C248.575,86.678 251.056,91.64 251.789,93.106C251.928,93.383 252,93.69 252,94C252,96.042 252,104.18 252,108C252,108.53 251.789,109.039 251.414,109.414C251.039,109.789 250.53,110 250,110L243.658,110C242.834,112.329 240.61,114 238,114C235.39,114 233.166,112.329 232.342,110L215.658,110ZM210,106C211.104,106 212,106.896 212,108C212,109.104 211.104,110 210,110C208.896,110 208,109.104 208,108C208,106.896 208.896,106 210,106ZM238,106C239.104,106 240,106.896 240,108C240,109.104 239.104,110 238,110C236.896,110 236,109.104 236,108C236,106.896 236.896,106 238,106ZM215.658,106L232.342,106C233.166,103.671 235.39,102 238,102C240.61,102 242.834,103.671 243.658,106L248,106L248,96L240,96C238.896,96 238,95.104 238,94C238,92.896 238.896,92 240,92L246.764,92C246.764,92 244.414,87.301 243.317,85.106C242.978,84.428 242.285,84 241.528,84C234.511,84 200,84 200,84L200,106L204.342,106C205.166,103.671 207.39,102 210,102C212.61,102 214.834,103.671 215.658,106Z"/>
</g>
</g>
</g>
</svg>